<svg id="visual" viewBox="0 0 960 240" width="960" height="240" xmlns="http://www.w3.org/2000/svg" xmlns:xlink="http://www.w3.org/1999/xlink" version="1.1"><path d="M0 18L7 31.8C14 45.7 28 73.3 41.8 92.8C55.7 112.3 69.3 123.7 83.2 118.5C97 113.3 111 91.7 125 83C139 74.3 153 78.7 167 88.2C181 97.7 195 112.3 208.8 134.3C222.7 156.3 236.3 185.7 250.2 168C264 150.3 278 85.7 292 54C306 22.3 320 23.7 334 34C348 44.3 362 63.7 375.8 85.3C389.7 107 403.3 131 417.2 143.7C431 156.3 445 157.7 459 135.5C473 113.3 487 67.7 501 64.3C515 61 529 100 542.8 99.7C556.7 99.3 570.3 59.7 584.2 45.3C598 31 612 42 626 47.3C640 52.7 654 52.3 668 63C682 73.7 696 95.3 709.8 124.2C723.7 153 737.3 189 751.2 185.5C765 182 779 139 793 124.7C807 110.3 821 124.7 835 132.2C849 139.7 863 140.3 876.8 132.7C890.7 125 904.3 109 918.2 107C932 105 946 117 953 123L960 129L960 0L953 0C946 0 932 0 918.2 0C904.3 0 890.7 0 876.8 0C863 0 849 0 835 0C821 0 807 0 793 0C779 0 765 0 751.2 0C737.3 0 723.7 0 709.8 0C696 0 682 0 668 0C654 0 640 0 626 0C612 0 598 0 584.2 0C570.3 0 556.7 0 542.8 0C529 0 515 0 501 0C487 0 473 0 459 0C445 0 431 0 417.2 0C403.3 0 389.7 0 375.8 0C362 0 348 0 334 0C320 0 306 0 292 0C278 0 264 0 250.2 0C236.3 0 222.7 0 208.8 0C195 0 181 0 167 0C153 0 139 0 125 0C111 0 97 0 83.2 0C69.3 0 55.7 0 41.8 0C28 0 14 0 7 0L0 0Z" fill="#8924c7"></path><path d="M0 210L7 176.3C14 142.7 28 75.3 41.8 52C55.7 28.7 69.3 49.3 83.2 71.2C97 93 111 116 125 111C139 106 153 73 167 76C181 79 195 118 208.8 125C222.7 132 236.3 107 250.2 117.5C264 128 278 174 292 181.5C306 189 320 158 334 156C348 154 362 181 375.8 182.5C389.7 184 403.3 160 417.2 143.7C431 127.3 445 118.7 459 132C473 145.3 487 180.7 501 197.2C515 213.7 529 211.3 542.8 187.7C556.7 164 570.3 119 584.2 119.8C598 120.7 612 167.3 626 158.8C640 150.3 654 86.7 668 59.7C682 32.7 696 42.3 709.8 69.3C723.7 96.3 737.3 140.7 751.2 156.8C765 173 779 161 793 154.5C807 148 821 147 835 154C849 161 863 176 876.8 167C890.7 158 904.3 125 918.2 106.5C932 88 946 84 953 82L960 80L960 0L953 0C946 0 932 0 918.2 0C904.3 0 890.7 0 876.8 0C863 0 849 0 835 0C821 0 807 0 793 0C779 0 765 0 751.2 0C737.3 0 723.7 0 709.8 0C696 0 682 0 668 0C654 0 640 0 626 0C612 0 598 0 584.2 0C570.3 0 556.7 0 542.8 0C529 0 515 0 501 0C487 0 473 0 459 0C445 0 431 0 417.2 0C403.3 0 389.7 0 375.8 0C362 0 348 0 334 0C320 0 306 0 292 0C278 0 264 0 250.2 0C236.3 0 222.7 0 208.8 0C195 0 181 0 167 0C153 0 139 0 125 0C111 0 97 0 83.2 0C69.3 0 55.7 0 41.8 0C28 0 14 0 7 0L0 0Z" fill="#9f05af"></path><path d="M0 85L7 76.3C14 67.7 28 50.3 41.8 60.5C55.7 70.7 69.3 108.3 83.2 134C97 159.7 111 173.3 125 182C139 190.7 153 194.3 167 191.3C181 188.3 195 178.7 208.8 147.8C222.7 117 236.3 65 250.2 58.8C264 52.7 278 92.3 292 121.2C306 150 320 168 334 154.3C348 140.7 362 95.3 375.8 94.5C389.7 93.7 403.3 137.3 417.2 161.2C431 185 445 189 459 173.2C473 157.3 487 121.7 501 121.3C515 121 529 156 542.8 170.2C556.7 184.3 570.3 177.7 584.2 158.3C598 139 612 107 626 99.2C640 91.3 654 107.7 668 100.5C682 93.3 696 62.7 709.8 43.8C723.7 25 737.3 18 751.2 20C765 22 779 33 793 48.7C807 64.3 821 84.7 835 87.3C849 90 863 75 876.8 58C890.7 41 904.3 22 918.2 19.8C932 17.7 946 32.3 953 39.7L960 47L960 0L953 0C946 0 932 0 918.2 0C904.3 0 890.7 0 876.8 0C863 0 849 0 835 0C821 0 807 0 793 0C779 0 765 0 751.2 0C737.3 0 723.7 0 709.8 0C696 0 682 0 668 0C654 0 640 0 626 0C612 0 598 0 584.2 0C570.3 0 556.7 0 542.8 0C529 0 515 0 501 0C487 0 473 0 459 0C445 0 431 0 417.2 0C403.3 0 389.7 0 375.8 0C362 0 348 0 334 0C320 0 306 0 292 0C278 0 264 0 250.2 0C236.3 0 222.7 0 208.8 0C195 0 181 0 167 0C153 0 139 0 125 0C111 0 97 0 83.2 0C69.3 0 55.7 0 41.8 0C28 0 14 0 7 0L0 0Z" fill="#ac0098"></path><path d="M0 37L7 56.2C14 75.3 28 113.7 41.8 130C55.7 146.3 69.3 140.7 83.2 137.8C97 135 111 135 125 128C139 121 153 107 167 111.8C181 116.7 195 140.3 208.8 125.8C222.7 111.3 236.3 58.7 250.2 56.8C264 55 278 104 292 106.2C306 108.3 320 63.7 334 56.8C348 50 362 81 375.8 85.3C389.7 89.7 403.3 67.3 417.2 60.5C431 53.7 445 62.3 459 82.5C473 102.7 487 134.3 501 137.2C515 140 529 114 542.8 111.8C556.7 109.7 570.3 131.3 584.2 116.8C598 102.3 612 51.7 626 29C640 6.3 654 11.7 668 35.2C682 58.7 696 100.3 709.8 118.3C723.7 136.3 737.3 130.7 751.2 133.8C765 137 779 149 793 137C807 125 821 89 835 91.5C849 94 863 135 876.8 147.2C890.7 159.3 904.3 142.7 918.2 135.7C932 128.7 946 131.3 953 132.7L960 134L960 0L953 0C946 0 932 0 918.2 0C904.3 0 890.7 0 876.8 0C863 0 849 0 835 0C821 0 807 0 793 0C779 0 765 0 751.2 0C737.3 0 723.7 0 709.8 0C696 0 682 0 668 0C654 0 640 0 626 0C612 0 598 0 584.2 0C570.3 0 556.7 0 542.8 0C529 0 515 0 501 0C487 0 473 0 459 0C445 0 431 0 417.2 0C403.3 0 389.7 0 375.8 0C362 0 348 0 334 0C320 0 306 0 292 0C278 0 264 0 250.2 0C236.3 0 222.7 0 208.8 0C195 0 181 0 167 0C153 0 139 0 125 0C111 0 97 0 83.2 0C69.3 0 55.7 0 41.8 0C28 0 14 0 7 0L0 0Z" fill="#b30083"></path><path d="M0 32L7 30.7C14 29.3 28 26.7 41.8 38.2C55.7 49.7 69.3 75.3 83.2 87.3C97 99.3 111 97.7 125 108.3C139 119 153 142 167 148.3C181 154.7 195 144.3 208.8 137.2C222.7 130 236.3 126 250.2 120.3C264 114.7 278 107.3 292 102C306 96.7 320 93.3 334 80.5C348 67.7 362 45.3 375.8 33.8C389.7 22.3 403.3 21.7 417.2 23.2C431 24.7 445 28.3 459 44.5C473 60.7 487 89.3 501 109.5C515 129.7 529 141.3 542.8 135.3C556.7 129.3 570.3 105.7 584.2 85.2C598 64.7 612 47.3 626 49C640 50.7 654 71.3 668 89.8C682 108.3 696 124.7 709.8 119.8C723.7 115 737.3 89 751.2 75C765 61 779 59 793 75.2C807 91.3 821 125.7 835 119.3C849 113 863 66 876.8 53.7C890.7 41.3 904.3 63.7 918.2 81.5C932 99.3 946 112.7 953 119.3L960 126L960 0L953 0C946 0 932 0 918.2 0C904.3 0 890.7 0 876.8 0C863 0 849 0 835 0C821 0 807 0 793 0C779 0 765 0 751.2 0C737.3 0 723.7 0 709.8 0C696 0 682 0 668 0C654 0 640 0 626 0C612 0 598 0 584.2 0C570.3 0 556.7 0 542.8 0C529 0 515 0 501 0C487 0 473 0 459 0C445 0 431 0 417.2 0C403.3 0 389.7 0 375.8 0C362 0 348 0 334 0C320 0 306 0 292 0C278 0 264 0 250.2 0C236.3 0 222.7 0 208.8 0C195 0 181 0 167 0C153 0 139 0 125 0C111 0 97 0 83.2 0C69.3 0 55.7 0 41.8 0C28 0 14 0 7 0L0 0Z" fill="#b5006f"></path><path d="M0 126L7 114C14 102 28 78 41.8 77.3C55.7 76.7 69.3 99.3 83.2 113.5C97 127.7 111 133.3 125 114.2C139 95 153 51 167 42.5C181 34 195 61 208.8 75.3C222.7 89.7 236.3 91.3 250.2 79.8C264 68.3 278 43.7 292 28.5C306 13.3 320 7.7 334 6.8C348 6 362 10 375.8 22.7C389.7 35.3 403.3 56.7 417.2 63.5C431 70.3 445 62.7 459 54.5C473 46.3 487 37.7 501 34C515 30.3 529 31.7 542.8 32.8C556.7 34 570.3 35 584.2 29.5C598 24 612 12 626 21C640 30 654 60 668 62.5C682 65 696 40 709.8 31C723.7 22 737.3 29 751.2 32.3C765 35.7 779 35.3 793 46.5C807 57.7 821 80.3 835 86.5C849 92.7 863 82.3 876.8 73.3C890.7 64.3 904.3 56.7 918.2 67.5C932 78.3 946 107.7 953 122.3L960 137L960 0L953 0C946 0 932 0 918.2 0C904.3 0 890.7 0 876.8 0C863 0 849 0 835 0C821 0 807 0 793 0C779 0 765 0 751.2 0C737.3 0 723.7 0 709.8 0C696 0 682 0 668 0C654 0 640 0 626 0C612 0 598 0 584.2 0C570.3 0 556.7 0 542.8 0C529 0 515 0 501 0C487 0 473 0 459 0C445 0 431 0 417.2 0C403.3 0 389.7 0 375.8 0C362 0 348 0 334 0C320 0 306 0 292 0C278 0 264 0 250.2 0C236.3 0 222.7 0 208.8 0C195 0 181 0 167 0C153 0 139 0 125 0C111 0 97 0 83.2 0C69.3 0 55.7 0 41.8 0C28 0 14 0 7 0L0 0Z" fill="#b4005d"></path><path d="M0 127L7 114.5C14 102 28 77 41.8 60.5C55.7 44 69.3 36 83.2 42.8C97 49.7 111 71.3 125 68.3C139 65.3 153 37.7 167 42.8C181 48 195 86 208.8 95.7C222.7 105.3 236.3 86.7 250.2 83.5C264 80.3 278 92.7 292 99.7C306 106.7 320 108.3 334 101.5C348 94.7 362 79.3 375.8 65.8C389.7 52.3 403.3 40.7 417.2 49.5C431 58.3 445 87.7 459 100.5C473 113.3 487 109.7 501 103.8C515 98 529 90 542.8 81C556.7 72 570.3 62 584.2 59C598 56 612 60 626 64.7C640 69.3 654 74.7 668 65C682 55.3 696 30.7 709.8 31.3C723.7 32 737.3 58 751.2 66C765 74 779 64 793 70.7C807 77.3 821 100.7 835 111.3C849 122 863 120 876.8 116.7C890.7 113.3 904.3 108.7 918.2 100C932 91.3 946 78.7 953 72.3L960 66L960 0L953 0C946 0 932 0 918.2 0C904.3 0 890.7 0 876.8 0C863 0 849 0 835 0C821 0 807 0 793 0C779 0 765 0 751.2 0C737.3 0 723.7 0 709.8 0C696 0 682 0 668 0C654 0 640 0 626 0C612 0 598 0 584.2 0C570.3 0 556.7 0 542.8 0C529 0 515 0 501 0C487 0 473 0 459 0C445 0 431 0 417.2 0C403.3 0 389.7 0 375.8 0C362 0 348 0 334 0C320 0 306 0 292 0C278 0 264 0 250.2 0C236.3 0 222.7 0 208.8 0C195 0 181 0 167 0C153 0 139 0 125 0C111 0 97 0 83.2 0C69.3 0 55.7 0 41.8 0C28 0 14 0 7 0L0 0Z" fill="#b0004d"></path><path d="M0 62L7 56.3C14 50.7 28 39.3 41.8 35.8C55.7 32.3 69.3 36.7 83.2 41C97 45.3 111 49.7 125 59.5C139 69.3 153 84.7 167 76C181 67.3 195 34.7 208.8 32.5C222.7 30.3 236.3 58.7 250.2 71.7C264 84.7 278 82.3 292 84.7C306 87 320 94 334 82.5C348 71 362 41 375.8 33.2C389.7 25.3 403.3 39.7 417.2 50.5C431 61.3 445 68.7 459 76.2C473 83.7 487 91.3 501 86.2C515 81 529 63 542.8 54.8C556.7 46.7 570.3 48.3 584.2 49.2C598 50 612 50 626 50.5C640 51 654 52 668 57.3C682 62.7 696 72.3 709.8 81.3C723.7 90.3 737.3 98.7 751.2 102.8C765 107 779 107 793 103.7C807 100.3 821 93.7 835 84C849 74.3 863 61.7 876.8 48.2C890.7 34.7 904.3 20.3 918.2 26.8C932 33.3 946 60.7 953 74.3L960 88L960 0L953 0C946 0 932 0 918.2 0C904.3 0 890.7 0 876.8 0C863 0 849 0 835 0C821 0 807 0 793 0C779 0 765 0 751.2 0C737.3 0 723.7 0 709.8 0C696 0 682 0 668 0C654 0 640 0 626 0C612 0 598 0 584.2 0C570.3 0 556.7 0 542.8 0C529 0 515 0 501 0C487 0 473 0 459 0C445 0 431 0 417.2 0C403.3 0 389.7 0 375.8 0C362 0 348 0 334 0C320 0 306 0 292 0C278 0 264 0 250.2 0C236.3 0 222.7 0 208.8 0C195 0 181 0 167 0C153 0 139 0 125 0C111 0 97 0 83.2 0C69.3 0 55.7 0 41.8 0C28 0 14 0 7 0L0 0Z" fill="#aa003e"></path><path d="M0 57L7 52.5C14 48 28 39 41.8 42.8C55.7 46.7 69.3 63.3 83.2 68.8C97 74.3 111 68.7 125 69.2C139 69.7 153 76.3 167 79.2C181 82 195 81 208.8 68.7C222.7 56.3 236.3 32.7 250.2 32C264 31.3 278 53.7 292 54.2C306 54.7 320 33.3 334 33.5C348 33.7 362 55.3 375.8 54.2C389.7 53 403.3 29 417.2 20.5C431 12 445 19 459 29.2C473 39.3 487 52.7 501 52.2C515 51.7 529 37.3 542.8 36.8C556.7 36.3 570.3 49.7 584.2 55.7C598 61.7 612 60.3 626 53.5C640 46.7 654 34.3 668 34.7C682 35 696 48 709.8 59.2C723.7 70.3 737.3 79.7 751.2 78.8C765 78 779 67 793 53.5C807 40 821 24 835 16.2C849 8.3 863 8.7 876.8 20.7C890.7 32.7 904.3 56.3 918.2 69.2C932 82 946 84 953 85L960 86L960 0L953 0C946 0 932 0 918.2 0C904.3 0 890.7 0 876.8 0C863 0 849 0 835 0C821 0 807 0 793 0C779 0 765 0 751.2 0C737.3 0 723.7 0 709.8 0C696 0 682 0 668 0C654 0 640 0 626 0C612 0 598 0 584.2 0C570.3 0 556.7 0 542.8 0C529 0 515 0 501 0C487 0 473 0 459 0C445 0 431 0 417.2 0C403.3 0 389.7 0 375.8 0C362 0 348 0 334 0C320 0 306 0 292 0C278 0 264 0 250.2 0C236.3 0 222.7 0 208.8 0C195 0 181 0 167 0C153 0 139 0 125 0C111 0 97 0 83.2 0C69.3 0 55.7 0 41.8 0C28 0 14 0 7 0L0 0Z" fill="#a3002f"></path><path d="M0 66L7 60C14 54 28 42 41.8 39.7C55.7 37.3 69.3 44.7 83.2 41.8C97 39 111 26 125 23.8C139 21.7 153 30.3 167 38.7C181 47 195 55 208.8 60.2C222.7 65.3 236.3 67.7 250.2 63.7C264 59.7 278 49.3 292 43.5C306 37.7 320 36.3 334 38.5C348 40.7 362 46.3 375.8 47.3C389.7 48.3 403.3 44.7 417.2 36.2C431 27.7 445 14.3 459 8.8C473 3.3 487 5.7 501 16.5C515 27.3 529 46.7 542.8 48.3C556.7 50 570.3 34 584.2 30.7C598 27.3 612 36.7 626 45.3C640 54 654 62 668 61.2C682 60.3 696 50.7 709.8 44.7C723.7 38.7 737.3 36.3 751.2 38.5C765 40.7 779 47.3 793 44.3C807 41.3 821 28.7 835 24.7C849 20.7 863 25.3 876.8 30.8C890.7 36.3 904.3 42.7 918.2 48.5C932 54.3 946 59.7 953 62.3L960 65L960 0L953 0C946 0 932 0 918.2 0C904.3 0 890.7 0 876.8 0C863 0 849 0 835 0C821 0 807 0 793 0C779 0 765 0 751.2 0C737.3 0 723.7 0 709.8 0C696 0 682 0 668 0C654 0 640 0 626 0C612 0 598 0 584.2 0C570.3 0 556.7 0 542.8 0C529 0 515 0 501 0C487 0 473 0 459 0C445 0 431 0 417.2 0C403.3 0 389.7 0 375.8 0C362 0 348 0 334 0C320 0 306 0 292 0C278 0 264 0 250.2 0C236.3 0 222.7 0 208.8 0C195 0 181 0 167 0C153 0 139 0 125 0C111 0 97 0 83.2 0C69.3 0 55.7 0 41.8 0C28 0 14 0 7 0L0 0Z" fill="#9a0220"></path><path d="M0 35L7 36.2C14 37.3 28 39.7 41.8 37C55.7 34.3 69.3 26.7 83.2 25.3C97 24 111 29 125 32.5C139 36 153 38 167 32.7C181 27.3 195 14.7 208.8 16.3C222.7 18 236.3 34 250.2 33.8C264 33.7 278 17.3 292 11C306 4.7 320 8.3 334 16.2C348 24 362 36 375.8 42C389.7 48 403.3 48 417.2 42.7C431 37.3 445 26.7 459 24C473 21.3 487 26.7 501 27.7C515 28.7 529 25.3 542.8 27.2C556.7 29 570.3 36 584.2 35.7C598 35.3 612 27.7 626 23.8C640 20 654 20 668 20C682 20 696 20 709.8 18.2C723.7 16.3 737.3 12.7 751.2 17.2C765 21.7 779 34.3 793 36.8C807 39.3 821 31.7 835 32.2C849 32.7 863 41.3 876.8 42.7C890.7 44 904.3 38 918.2 36.8C932 35.7 946 39.3 953 41.2L960 43L960 0L953 0C946 0 932 0 918.2 0C904.3 0 890.7 0 876.8 0C863 0 849 0 835 0C821 0 807 0 793 0C779 0 765 0 751.2 0C737.3 0 723.7 0 709.8 0C696 0 682 0 668 0C654 0 640 0 626 0C612 0 598 0 584.2 0C570.3 0 556.7 0 542.8 0C529 0 515 0 501 0C487 0 473 0 459 0C445 0 431 0 417.2 0C403.3 0 389.7 0 375.8 0C362 0 348 0 334 0C320 0 306 0 292 0C278 0 264 0 250.2 0C236.3 0 222.7 0 208.8 0C195 0 181 0 167 0C153 0 139 0 125 0C111 0 97 0 83.2 0C69.3 0 55.7 0 41.8 0C28 0 14 0 7 0L0 0Z" fill="#910c12"></path><path d="M0 1L7 5.5C14 10 28 19 41.8 19.2C55.7 19.3 69.3 10.7 83.2 10.2C97 9.7 111 17.3 125 20.2C139 23 153 21 167 19.3C181 17.7 195 16.3 208.8 18.7C222.7 21 236.3 27 250.2 24.5C264 22 278 11 292 5.7C306 0.3 320 0.7 334 3.8C348 7 362 13 375.8 17C389.7 21 403.3 23 417.2 21.8C431 20.7 445 16.3 459 14C473 11.7 487 11.3 501 10C515 8.7 529 6.3 542.8 7C556.7 7.7 570.3 11.3 584.2 16C598 20.7 612 26.3 626 26.8C640 27.3 654 22.7 668 19.2C682 15.7 696 13.3 709.8 15C723.7 16.7 737.3 22.3 751.2 24.3C765 26.3 779 24.7 793 24.2C807 23.7 821 24.3 835 25.7C849 27 863 29 876.8 25.3C890.7 21.7 904.3 12.3 918.2 9.7C932 7 946 11 953 13L960 15L960 0L953 0C946 0 932 0 918.2 0C904.3 0 890.7 0 876.8 0C863 0 849 0 835 0C821 0 807 0 793 0C779 0 765 0 751.2 0C737.3 0 723.7 0 709.8 0C696 0 682 0 668 0C654 0 640 0 626 0C612 0 598 0 584.2 0C570.3 0 556.7 0 542.8 0C529 0 515 0 501 0C487 0 473 0 459 0C445 0 431 0 417.2 0C403.3 0 389.7 0 375.8 0C362 0 348 0 334 0C320 0 306 0 292 0C278 0 264 0 250.2 0C236.3 0 222.7 0 208.8 0C195 0 181 0 167 0C153 0 139 0 125 0C111 0 97 0 83.2 0C69.3 0 55.7 0 41.8 0C28 0 14 0 7 0L0 0Z" fill="#871400"></path></svg>