<svg id="visual" viewBox="0 0 960 240" width="960" height="240" xmlns="http://www.w3.org/2000/svg" xmlns:xlink="http://www.w3.org/1999/xlink" version="1.1"><path d="M0 96L42 105L83 149L125 119L167 143L209 110L250 116L292 85L334 86L376 147L417 103L459 87L501 180L543 172L584 73L626 153L668 120L710 79L751 87L793 81L835 103L877 177L918 132L960 87L960 241L918 241L877 241L835 241L793 241L751 241L710 241L668 241L626 241L584 241L543 241L501 241L459 241L417 241L376 241L334 241L292 241L250 241L209 241L167 241L125 241L83 241L42 241L0 241Z" fill="#f5730a"></path><path d="M0 179L42 193L83 139L125 112L167 103L209 84L250 159L292 165L334 148L376 189L417 170L459 109L501 167L543 153L584 114L626 135L668 90L710 112L751 128L793 137L835 126L877 149L918 123L960 163L960 241L918 241L877 241L835 241L793 241L751 241L710 241L668 241L626 241L584 241L543 241L501 241L459 241L417 241L376 241L334 241L292 241L250 241L209 241L167 241L125 241L83 241L42 241L0 241Z" fill="#eb6a0a"></path><path d="M0 164L42 97L83 123L125 186L167 155L209 118L250 180L292 198L334 190L376 127L417 107L459 168L501 169L543 179L584 110L626 195L668 112L710 170L751 111L793 177L835 146L877 190L918 118L960 97L960 241L918 241L877 241L835 241L793 241L751 241L710 241L668 241L626 241L584 241L543 241L501 241L459 241L417 241L376 241L334 241L292 241L250 241L209 241L167 241L125 241L83 241L42 241L0 241Z" fill="#e16209"></path><path d="M0 151L42 192L83 166L125 114L167 131L209 201L250 173L292 186L334 185L376 141L417 119L459 120L501 165L543 123L584 120L626 204L668 205L710 126L751 144L793 203L835 162L877 171L918 129L960 120L960 241L918 241L877 241L835 241L793 241L751 241L710 241L668 241L626 241L584 241L543 241L501 241L459 241L417 241L376 241L334 241L292 241L250 241L209 241L167 241L125 241L83 241L42 241L0 241Z" fill="#d75909"></path><path d="M0 189L42 202L83 133L125 171L167 184L209 127L250 155L292 190L334 189L376 151L417 190L459 187L501 157L543 143L584 158L626 129L668 173L710 131L751 154L793 169L835 164L877 165L918 211L960 191L960 241L918 241L877 241L835 241L793 241L751 241L710 241L668 241L626 241L584 241L543 241L501 241L459 241L417 241L376 241L334 241L292 241L250 241L209 241L167 241L125 241L83 241L42 241L0 241Z" fill="#cd5108"></path><path d="M0 146L42 159L83 181L125 155L167 170L209 171L250 159L292 215L334 206L376 186L417 206L459 153L501 151L543 167L584 198L626 158L668 143L710 138L751 204L793 136L835 148L877 210L918 170L960 195L960 241L918 241L877 241L835 241L793 241L751 241L710 241L668 241L626 241L584 241L543 241L501 241L459 241L417 241L376 241L334 241L292 241L250 241L209 241L167 241L125 241L83 241L42 241L0 241Z" fill="#c34807"></path><path d="M0 155L42 156L83 204L125 191L167 204L209 201L250 178L292 192L334 205L376 158L417 163L459 188L501 169L543 201L584 186L626 190L668 216L710 207L751 169L793 196L835 177L877 165L918 156L960 190L960 241L918 241L877 241L835 241L793 241L751 241L710 241L668 241L626 241L584 241L543 241L501 241L459 241L417 241L376 241L334 241L292 241L250 241L209 241L167 241L125 241L83 241L42 241L0 241Z" fill="#b94007"></path><path d="M0 196L42 196L83 185L125 176L167 210L209 221L250 177L292 222L334 181L376 189L417 200L459 182L501 195L543 166L584 197L626 194L668 175L710 214L751 217L793 185L835 176L877 177L918 202L960 174L960 241L918 241L877 241L835 241L793 241L751 241L710 241L668 241L626 241L584 241L543 241L501 241L459 241L417 241L376 241L334 241L292 241L250 241L209 241L167 241L125 241L83 241L42 241L0 241Z" fill="#af3706"></path><path d="M0 195L42 187L83 195L125 205L167 216L209 223L250 200L292 199L334 207L376 199L417 186L459 205L501 219L543 201L584 188L626 175L668 214L710 181L751 186L793 224L835 187L877 210L918 222L960 187L960 241L918 241L877 241L835 241L793 241L751 241L710 241L668 241L626 241L584 241L543 241L501 241L459 241L417 241L376 241L334 241L292 241L250 241L209 241L167 241L125 241L83 241L42 241L0 241Z" fill="#a52f05"></path><path d="M0 223L42 197L83 228L125 224L167 228L209 197L250 219L292 191L334 210L376 213L417 196L459 211L501 203L543 222L584 208L626 209L668 204L710 210L751 219L793 197L835 195L877 200L918 211L960 193L960 241L918 241L877 241L835 241L793 241L751 241L710 241L668 241L626 241L584 241L543 241L501 241L459 241L417 241L376 241L334 241L292 241L250 241L209 241L167 241L125 241L83 241L42 241L0 241Z" fill="#9b2604"></path><path d="M0 214L42 212L83 220L125 224L167 210L209 221L250 212L292 234L334 214L376 229L417 228L459 233L501 214L543 214L584 235L626 226L668 215L710 234L751 233L793 216L835 217L877 212L918 216L960 221L960 241L918 241L877 241L835 241L793 241L751 241L710 241L668 241L626 241L584 241L543 241L501 241L459 241L417 241L376 241L334 241L292 241L250 241L209 241L167 241L125 241L83 241L42 241L0 241Z" fill="#911e02"></path><path d="M0 223L42 234L83 231L125 218L167 222L209 235L250 229L292 236L334 229L376 232L417 226L459 236L501 226L543 238L584 225L626 233L668 222L710 234L751 216L793 234L835 234L877 215L918 224L960 227L960 241L918 241L877 241L835 241L793 241L751 241L710 241L668 241L626 241L584 241L543 241L501 241L459 241L417 241L376 241L334 241L292 241L250 241L209 241L167 241L125 241L83 241L42 241L0 241Z" fill="#871400"></path></svg>