<svg id="visual" viewBox="0 0 960 380" width="960" height="380" xmlns="http://www.w3.org/2000/svg" xmlns:xlink="http://www.w3.org/1999/xlink" version="1.1"><path d="M0 211L42 211L42 238L83 238L83 192L125 192L125 254L167 254L167 273L209 273L209 181L250 181L250 256L292 256L292 246L334 246L334 300L376 300L376 205L417 205L417 275L459 275L459 197L501 197L501 269L543 269L543 247L584 247L584 286L626 286L626 272L668 272L668 251L710 251L710 246L751 246L751 269L793 269L793 228L835 228L835 257L877 257L877 239L918 239L918 251L960 251L960 262L960 0L960 0L918 0L918 0L877 0L877 0L835 0L835 0L793 0L793 0L751 0L751 0L710 0L710 0L668 0L668 0L626 0L626 0L584 0L584 0L543 0L543 0L501 0L501 0L459 0L459 0L417 0L417 0L376 0L376 0L334 0L334 0L292 0L292 0L250 0L250 0L209 0L209 0L167 0L167 0L125 0L125 0L83 0L83 0L42 0L42 0L0 0Z" fill="#140028"></path><path d="M0 201L42 201L42 198L83 198L83 185L125 185L125 238L167 238L167 201L209 201L209 191L250 191L250 190L292 190L292 176L334 176L334 261L376 261L376 249L417 249L417 217L459 217L459 207L501 207L501 235L543 235L543 231L584 231L584 180L626 180L626 274L668 274L668 246L710 246L710 223L751 223L751 256L793 256L793 267L835 267L835 255L877 255L877 234L918 234L918 181L960 181L960 215L960 0L960 0L918 0L918 0L877 0L877 0L835 0L835 0L793 0L793 0L751 0L751 0L710 0L710 0L668 0L668 0L626 0L626 0L584 0L584 0L543 0L543 0L501 0L501 0L459 0L459 0L417 0L417 0L376 0L376 0L334 0L334 0L292 0L292 0L250 0L250 0L209 0L209 0L167 0L167 0L125 0L125 0L83 0L83 0L42 0L42 0L0 0Z" fill="#17062f"></path><path d="M0 240L42 240L42 189L83 189L83 223L125 223L125 213L167 213L167 163L209 163L209 227L250 227L250 165L292 165L292 176L334 176L334 246L376 246L376 217L417 217L417 232L459 232L459 174L501 174L501 208L543 208L543 233L584 233L584 241L626 241L626 146L668 146L668 206L710 206L710 241L751 241L751 169L793 169L793 154L835 154L835 239L877 239L877 182L918 182L918 157L960 157L960 206L960 0L960 0L918 0L918 0L877 0L877 0L835 0L835 0L793 0L793 0L751 0L751 0L710 0L710 0L668 0L668 0L626 0L626 0L584 0L584 0L543 0L543 0L501 0L501 0L459 0L459 0L417 0L417 0L376 0L376 0L334 0L334 0L292 0L292 0L250 0L250 0L209 0L209 0L167 0L167 0L125 0L125 0L83 0L83 0L42 0L42 0L0 0Z" fill="#1c0b36"></path><path d="M0 200L42 200L42 179L83 179L83 197L125 197L125 192L167 192L167 156L209 156L209 143L250 143L250 159L292 159L292 161L334 161L334 154L376 154L376 188L417 188L417 195L459 195L459 212L501 212L501 183L543 183L543 172L584 172L584 171L626 171L626 195L668 195L668 222L710 222L710 233L751 233L751 196L793 196L793 205L835 205L835 138L877 138L877 217L918 217L918 204L960 204L960 142L960 0L960 0L918 0L918 0L877 0L877 0L835 0L835 0L793 0L793 0L751 0L751 0L710 0L710 0L668 0L668 0L626 0L626 0L584 0L584 0L543 0L543 0L501 0L501 0L459 0L459 0L417 0L417 0L376 0L376 0L334 0L334 0L292 0L292 0L250 0L250 0L209 0L209 0L167 0L167 0L125 0L125 0L83 0L83 0L42 0L42 0L0 0Z" fill="#210e3e"></path><path d="M0 134L42 134L42 124L83 124L83 160L125 160L125 199L167 199L167 158L209 158L209 125L250 125L250 155L292 155L292 128L334 128L334 179L376 179L376 147L417 147L417 133L459 133L459 143L501 143L501 208L543 208L543 117L584 117L584 161L626 161L626 147L668 147L668 209L710 209L710 139L751 139L751 191L793 191L793 203L835 203L835 204L877 204L877 148L918 148L918 149L960 149L960 189L960 0L960 0L918 0L918 0L877 0L877 0L835 0L835 0L793 0L793 0L751 0L751 0L710 0L710 0L668 0L668 0L626 0L626 0L584 0L584 0L543 0L543 0L501 0L501 0L459 0L459 0L417 0L417 0L376 0L376 0L334 0L334 0L292 0L292 0L250 0L250 0L209 0L209 0L167 0L167 0L125 0L125 0L83 0L83 0L42 0L42 0L0 0Z" fill="#271146"></path><path d="M0 152L42 152L42 113L83 113L83 125L125 125L125 173L167 173L167 168L209 168L209 132L250 132L250 98L292 98L292 133L334 133L334 151L376 151L376 116L417 116L417 149L459 149L459 183L501 183L501 136L543 136L543 119L584 119L584 170L626 170L626 175L668 175L668 173L710 173L710 105L751 105L751 126L793 126L793 156L835 156L835 180L877 180L877 169L918 169L918 104L960 104L960 182L960 0L960 0L918 0L918 0L877 0L877 0L835 0L835 0L793 0L793 0L751 0L751 0L710 0L710 0L668 0L668 0L626 0L626 0L584 0L584 0L543 0L543 0L501 0L501 0L459 0L459 0L417 0L417 0L376 0L376 0L334 0L334 0L292 0L292 0L250 0L250 0L209 0L209 0L167 0L167 0L125 0L125 0L83 0L83 0L42 0L42 0L0 0Z" fill="#2e134d"></path><path d="M0 126L42 126L42 149L83 149L83 82L125 82L125 136L167 136L167 126L209 126L209 135L250 135L250 82L292 82L292 151L334 151L334 110L376 110L376 117L417 117L417 105L459 105L459 89L501 89L501 134L543 134L543 105L584 105L584 107L626 107L626 95L668 95L668 82L710 82L710 110L751 110L751 143L793 143L793 145L835 145L835 97L877 97L877 150L918 150L918 111L960 111L960 137L960 0L960 0L918 0L918 0L877 0L877 0L835 0L835 0L793 0L793 0L751 0L751 0L710 0L710 0L668 0L668 0L626 0L626 0L584 0L584 0L543 0L543 0L501 0L501 0L459 0L459 0L417 0L417 0L376 0L376 0L334 0L334 0L292 0L292 0L250 0L250 0L209 0L209 0L167 0L167 0L125 0L125 0L83 0L83 0L42 0L42 0L0 0Z" fill="#341555"></path><path d="M0 128L42 128L42 68L83 68L83 119L125 119L125 118L167 118L167 88L209 88L209 100L250 100L250 97L292 97L292 68L334 68L334 108L376 108L376 91L417 91L417 135L459 135L459 95L501 95L501 82L543 82L543 76L584 76L584 74L626 74L626 129L668 129L668 136L710 136L710 128L751 128L751 97L793 97L793 94L835 94L835 126L877 126L877 134L918 134L918 70L960 70L960 124L960 0L960 0L918 0L918 0L877 0L877 0L835 0L835 0L793 0L793 0L751 0L751 0L710 0L710 0L668 0L668 0L626 0L626 0L584 0L584 0L543 0L543 0L501 0L501 0L459 0L459 0L417 0L417 0L376 0L376 0L334 0L334 0L292 0L292 0L250 0L250 0L209 0L209 0L167 0L167 0L125 0L125 0L83 0L83 0L42 0L42 0L0 0Z" fill="#3b175d"></path><path d="M0 102L42 102L42 94L83 94L83 78L125 78L125 64L167 64L167 74L209 74L209 79L250 79L250 72L292 72L292 85L334 85L334 58L376 58L376 114L417 114L417 104L459 104L459 58L501 58L501 67L543 67L543 51L584 51L584 82L626 82L626 107L668 107L668 76L710 76L710 71L751 71L751 89L793 89L793 98L835 98L835 102L877 102L877 76L918 76L918 60L960 60L960 55L960 0L960 0L918 0L918 0L877 0L877 0L835 0L835 0L793 0L793 0L751 0L751 0L710 0L710 0L668 0L668 0L626 0L626 0L584 0L584 0L543 0L543 0L501 0L501 0L459 0L459 0L417 0L417 0L376 0L376 0L334 0L334 0L292 0L292 0L250 0L250 0L209 0L209 0L167 0L167 0L125 0L125 0L83 0L83 0L42 0L42 0L0 0Z" fill="#421965"></path><path d="M0 62L42 62L42 55L83 55L83 41L125 41L125 50L167 50L167 75L209 75L209 40L250 40L250 49L292 49L292 53L334 53L334 79L376 79L376 35L417 35L417 71L459 71L459 72L501 72L501 57L543 57L543 62L584 62L584 70L626 70L626 43L668 43L668 52L710 52L710 88L751 88L751 88L793 88L793 81L835 81L835 84L877 84L877 70L918 70L918 86L960 86L960 86L960 0L960 0L918 0L918 0L877 0L877 0L835 0L835 0L793 0L793 0L751 0L751 0L710 0L710 0L668 0L668 0L626 0L626 0L584 0L584 0L543 0L543 0L501 0L501 0L459 0L459 0L417 0L417 0L376 0L376 0L334 0L334 0L292 0L292 0L250 0L250 0L209 0L209 0L167 0L167 0L125 0L125 0L83 0L83 0L42 0L42 0L0 0Z" fill="#4a1b6c"></path><path d="M0 33L42 33L42 68L83 68L83 21L125 21L125 66L167 66L167 51L209 51L209 47L250 47L250 57L292 57L292 59L334 59L334 36L376 36L376 44L417 44L417 64L459 64L459 68L501 68L501 35L543 35L543 42L584 42L584 64L626 64L626 52L668 52L668 27L710 27L710 53L751 53L751 20L793 20L793 18L835 18L835 49L877 49L877 61L918 61L918 66L960 66L960 18L960 0L960 0L918 0L918 0L877 0L877 0L835 0L835 0L793 0L793 0L751 0L751 0L710 0L710 0L668 0L668 0L626 0L626 0L584 0L584 0L543 0L543 0L501 0L501 0L459 0L459 0L417 0L417 0L376 0L376 0L334 0L334 0L292 0L292 0L250 0L250 0L209 0L209 0L167 0L167 0L125 0L125 0L83 0L83 0L42 0L42 0L0 0Z" fill="#511d74"></path><path d="M0 1L42 1L42 38L83 38L83 35L125 35L125 26L167 26L167 10L209 10L209 35L250 35L250 4L292 4L292 12L334 12L334 7L376 7L376 18L417 18L417 15L459 15L459 34L501 34L501 9L543 9L543 4L584 4L584 8L626 8L626 14L668 14L668 41L710 41L710 35L751 35L751 0L793 0L793 43L835 43L835 23L877 23L877 10L918 10L918 17L960 17L960 32L960 0L960 0L918 0L918 0L877 0L877 0L835 0L835 0L793 0L793 0L751 0L751 0L710 0L710 0L668 0L668 0L626 0L626 0L584 0L584 0L543 0L543 0L501 0L501 0L459 0L459 0L417 0L417 0L376 0L376 0L334 0L334 0L292 0L292 0L250 0L250 0L209 0L209 0L167 0L167 0L125 0L125 0L83 0L83 0L42 0L42 0L0 0Z" fill="#591f7c"></path></svg>